<svg xmlns="http://www.w3.org/2000/svg" viewBox="0 0 247.2 53.29"><defs><style>.cls-1{fill:#4a4a4a;fill-rule:evenodd;}</style></defs><title>Asset 1</title><g id="Layer_2" data-name="Layer 2"><g id="Layer_1-2" data-name="Layer 1"><path class="cls-1" d="M234.53,47.33H157.19a55.84,55.84,0,0,1,7.29-18.93,5,5,0,0,0,2.69.73,5.67,5.67,0,0,0,3.65-1.47,4.88,4.88,0,0,0,1.63-3.44A4.65,4.65,0,0,0,170.82,21a5.24,5.24,0,0,0-7.3,0A4.16,4.16,0,0,0,162,24.22a4.68,4.68,0,0,0,1.34,3.27l-11.14,9.66c-1.92,1.47-3.17,1.06-3.56-1.31L147.19,16a5.09,5.09,0,0,0,3.07-1.48,4.33,4.33,0,0,0,1.54-3.35,4.07,4.07,0,0,0-1.54-3.28,5.19,5.19,0,0,0-3.65-1.55A5.37,5.37,0,0,0,143,7.85a4.06,4.06,0,0,0-1.53,3.28A4.32,4.32,0,0,0,143,14.48a5.74,5.74,0,0,0,1.25.9l-10.09,18c-1.34,2.29-2.59,2.29-3.55,0l-5.86-23.9a5.1,5.1,0,0,0,2.5-1.31,4.52,4.52,0,0,0,1.53-3.44,4.18,4.18,0,0,0-1.53-3.27A5,5,0,0,0,123.56,0a4.68,4.68,0,0,0-3.66,1.47,3.92,3.92,0,0,0-1.53,3.27,4.24,4.24,0,0,0,1.53,3.44,4.32,4.32,0,0,0,1.25.9,5.1,5.1,0,0,0,1.25.41l-5.76,23.9c-1.06,2.29-2.31,2.29-3.65,0l-10.09-18a5.36,5.36,0,0,0,1.16-.9,4.47,4.47,0,0,0,1.63-3.35,4.19,4.19,0,0,0-1.63-3.28,5,5,0,0,0-7.2,0,4.14,4.14,0,0,0-1.64,3.28,4.41,4.41,0,0,0,1.64,3.35A5.09,5.09,0,0,0,100,16L98.48,35.84c-.47,2.37-1.62,2.78-3.55,1.31L83.79,27.49a4.68,4.68,0,0,0,1.34-3.27A4.49,4.49,0,0,0,83.6,21,5.29,5.29,0,0,0,80,19.47,5.35,5.35,0,0,0,76.2,21a4.09,4.09,0,0,0-1.44,3.27,4.34,4.34,0,0,0,1.44,3.44A5.72,5.72,0,0,0,80,29.13a4.69,4.69,0,0,0,2.59-.73,52.56,52.56,0,0,1,7.3,18.93H12.67L0,50.3l12.67,3H234.53l12.67-3Z"/></g></g></svg>