<?xml version="1.0" encoding="UTF-8"?>
<svg width="386px" height="57px" viewBox="0 0 386 57" version="1.1" xmlns="http://www.w3.org/2000/svg" xmlns:xlink="http://www.w3.org/1999/xlink">
    <title>IDOPARIENTE</title>
    <g id="Page-1" stroke="none" stroke-width="1" fill="none" fill-rule="evenodd">
        <g id="parientemma-copy" transform="translate(-222.000000, -1534.000000)" fill="#FFFFFF" fill-rule="nonzero">
            <path d="M236.77,1586.08 L234.67,1583 L244.4,1537.29 L247.97,1534.21 L233.06,1534.21 L234.95,1537.29 L225.22,1583 L222,1586.08 L236.77,1586.08 Z M253.22,1586.08 C257.653333,1585.42667 261.351667,1584.17833 264.315,1582.335 C267.278333,1580.49167 269.716667,1578.33333 271.63,1575.86 C273.543333,1573.38667 275.013333,1570.75 276.04,1567.95 C277.066667,1565.15 277.86,1562.46667 278.42,1559.9 C278.746667,1558.36 279.003333,1556.69167 279.19,1554.895 C279.376667,1553.09833 279.4,1551.29 279.26,1549.47 C279.12,1547.65 278.781667,1545.88833 278.245,1544.185 C277.708333,1542.48167 276.903333,1540.93 275.83,1539.53 C274.756667,1538.13 273.368333,1536.95167 271.665,1535.995 C269.961667,1535.03833 267.873333,1534.42 265.4,1534.14 L265.4,1534.14 L252.17,1534.14 L254.2,1537.22 L244.47,1583.14 L241.11,1586.08 L253.22,1586.08 Z M255.39,1577.61 L262.88,1542.12 L264.49,1542.19 C266.03,1542.89 267.196667,1543.94 267.99,1545.34 C268.783333,1546.74 269.308333,1548.28 269.565,1549.96 C269.821667,1551.64 269.88,1553.34333 269.74,1555.07 C269.6,1556.79667 269.39,1558.33667 269.11,1559.69 C268.783333,1561.18333 268.328333,1562.805 267.745,1564.555 C267.161667,1566.305 266.391667,1568.00833 265.435,1569.665 C264.478333,1571.32167 263.3,1572.85 261.9,1574.25 C260.5,1575.65 258.843333,1576.74667 256.93,1577.54 L256.93,1577.54 L255.39,1577.61 Z M298.16,1586.22 C300.26,1586.22 302.278333,1585.78833 304.215,1584.925 C306.151667,1584.06167 307.96,1582.90667 309.64,1581.46 C311.32,1580.01333 312.871667,1578.35667 314.295,1576.49 C315.718333,1574.62333 316.978333,1572.69833 318.075,1570.715 C319.171667,1568.73167 320.081667,1566.77167 320.805,1564.835 C321.528333,1562.89833 322.076667,1561.11333 322.45,1559.48 L322.66,1558.5 C323.033333,1556.16667 323.196667,1553.635 323.15,1550.905 C323.103333,1548.175 322.625,1545.59667 321.715,1543.17 C320.805,1540.74333 319.346667,1538.67833 317.34,1536.975 C315.333333,1535.27167 312.556667,1534.28 309.01,1534 C305.743333,1534.37333 302.756667,1535.41167 300.05,1537.115 C297.343333,1538.81833 294.951667,1540.84833 292.875,1543.205 C290.798333,1545.56167 289.095,1548.07 287.765,1550.73 C286.435,1553.39 285.536667,1555.84 285.07,1558.08 L284.86,1558.92 C284.813333,1559.15333 284.79,1559.36333 284.79,1559.55 L284.79,1559.9 L284.79,1559.9 C284.463333,1561.44 284.265,1563.16667 284.195,1565.08 C284.125,1566.99333 284.218333,1568.91833 284.475,1570.855 C284.731667,1572.79167 285.175,1574.68167 285.805,1576.525 C286.435,1578.36833 287.286667,1580.01333 288.36,1581.46 C289.433333,1582.90667 290.74,1584.06167 292.28,1584.925 C293.82,1585.78833 295.616667,1586.22 297.67,1586.22 L298.16,1586.22 Z M299.84,1577.82 L298.93,1577.68 L299,1577.68 C297.506667,1577.12 296.34,1576.18667 295.5,1574.88 C294.66,1573.57333 294.088333,1572.10333 293.785,1570.47 C293.481667,1568.83667 293.365,1567.145 293.435,1565.395 C293.505,1563.645 293.703333,1562.02333 294.03,1560.53 L294.24,1559.34 C294.566667,1557.8 295.056667,1556.17833 295.71,1554.475 C296.363333,1552.77167 297.18,1551.13833 298.16,1549.575 C299.14,1548.01167 300.318333,1546.57667 301.695,1545.27 C303.071667,1543.96333 304.646667,1542.96 306.42,1542.26 L306.35,1542.33 L307.47,1542.19 C309.243333,1542.98333 310.573333,1544.08 311.46,1545.48 C312.346667,1546.88 312.953333,1548.39667 313.28,1550.03 C313.606667,1551.66333 313.7,1553.33167 313.56,1555.035 C313.42,1556.73833 313.21,1558.29 312.93,1559.69 C312.416667,1562.07 311.681667,1564.26333 310.725,1566.27 C309.768333,1568.27667 308.718333,1570.05 307.575,1571.59 C306.431667,1573.13 305.253333,1574.41333 304.04,1575.44 C302.826667,1576.46667 301.706667,1577.21333 300.68,1577.68 L299.84,1577.82 Z M361.58,1586.08 L359.41,1583.21 L364.52,1558.92 L367.53,1562.21 C370.47,1561.18333 372.966667,1560.15667 375.02,1559.13 C377.073333,1558.10333 378.788333,1557.00667 380.165,1555.84 C381.541667,1554.67333 382.638333,1553.40167 383.455,1552.025 C384.271667,1550.64833 384.913333,1549.09667 385.38,1547.37 L385.38,1547.37 L385.38,1547.16 C385.706667,1545.62 385.706667,1544.08 385.38,1542.54 C385.053333,1541 384.388333,1539.61167 383.385,1538.375 C382.381667,1537.13833 380.993333,1536.14667 379.22,1535.4 C377.446667,1534.65333 375.3,1534.28 372.78,1534.28 L372.78,1534.28 L357.24,1534.28 L359.34,1537.36 L349.61,1583.21 L346.25,1586.08 L361.58,1586.08 Z M367.53,1555.42 L365.5,1555.42 L368.44,1541.49 L370.19,1541.49 C371.543333,1541.49 372.628333,1541.68833 373.445,1542.085 C374.261667,1542.48167 374.88,1542.995 375.3,1543.625 C375.72,1544.255 375.965,1544.96667 376.035,1545.76 C376.105,1546.55333 376.046667,1547.37 375.86,1548.21 C375.72,1549.00333 375.405,1549.82 374.915,1550.66 C374.425,1551.5 373.818333,1552.27 373.095,1552.97 C372.371667,1553.67 371.543333,1554.25333 370.61,1554.72 C369.676667,1555.18667 368.65,1555.42 367.53,1555.42 L367.53,1555.42 Z M398.33,1586.08 L396.3,1583 L401.2,1559.97 L407.5,1559.97 L402.6,1583 L399.1,1586.08 L414.43,1586.08 L412.12,1583.14 L421.64,1538.41 C421.686667,1537.71 421.441667,1537.10333 420.905,1536.59 C420.368333,1536.07667 419.68,1535.645 418.84,1535.295 C418,1534.945 417.09,1534.67667 416.11,1534.49 C415.13,1534.30333 414.22,1534.21 413.38,1534.21 L406.24,1534.21 C405.446667,1534.21 404.513333,1534.29167 403.44,1534.455 C402.366667,1534.61833 401.316667,1534.86333 400.29,1535.19 C399.263333,1535.51667 398.341667,1535.94833 397.525,1536.485 C396.708333,1537.02167 396.206667,1537.64 396.02,1538.34 L392.94,1552.97 L388.04,1559.97 L391.4,1559.97 L386.5,1583 L383.14,1586.08 L398.33,1586.08 Z M409.04,1552.76 L402.74,1552.76 L405.26,1541 L411.56,1541 L409.04,1552.76 Z M433.96,1586.08 L431.79,1583.21 L436.69,1559.97 L443.06,1583.56 L442.5,1586.08 L455.59,1586.08 L452.3,1583.07 L447.4,1559.06 C450.2,1557.66 452.486667,1555.875 454.26,1553.705 C456.033333,1551.535 457.2,1549.19 457.76,1546.67 C458.086667,1545.17667 458.086667,1543.68333 457.76,1542.19 C457.433333,1540.69667 456.756667,1539.355 455.73,1538.165 C454.703333,1536.975 453.315,1536.01833 451.565,1535.295 C449.815,1534.57167 447.68,1534.21 445.16,1534.21 L429.69,1534.21 L431.72,1537.29 L421.99,1583.21 L418.63,1586.08 L433.96,1586.08 Z M440.05,1555.49 L437.88,1555.49 L440.89,1541.42 L442.64,1541.42 C443.946667,1541.42 445.02,1541.61833 445.86,1542.015 C446.7,1542.41167 447.33,1542.925 447.75,1543.555 C448.17,1544.185 448.415,1544.92 448.485,1545.76 C448.555,1546.6 448.496667,1547.44 448.31,1548.28 C448.123333,1549.07333 447.808333,1549.89 447.365,1550.73 C446.921667,1551.57 446.35,1552.34 445.65,1553.04 C444.95,1553.74 444.133333,1554.32333 443.2,1554.79 C442.266667,1555.25667 441.216667,1555.49 440.05,1555.49 Z M472.67,1586.08 L470.57,1583 L480.3,1537.29 L483.87,1534.21 L468.96,1534.21 L470.85,1537.29 L461.12,1583 L457.9,1586.08 L472.67,1586.08 Z M500.25,1586.08 L502.28,1576.63 L498.43,1579.15 L491.71,1579.15 L495.84,1559.83 L502.84,1559.83 L508.09,1552.76 L497.31,1552.76 L499.76,1541.14 L506.48,1541.14 L509.35,1543.38 L511.31,1534.21 L488.7,1534.21 L490.8,1537.36 L487.51,1552.83 L482.68,1559.97 L486.04,1559.97 L481.14,1583 L477.64,1586.08 L500.25,1586.08 Z M532.59,1590.98 L533.36,1590.84 L544.7,1537.36 L548.27,1534.14 L532.59,1534.14 L534.69,1537.29 L531.47,1552.55 L526.01,1534.14 L516.98,1534.14 L518.94,1537.29 L509.21,1583 L505.92,1586.08 L521.11,1586.08 L519.01,1583 L524.19,1558.78 L532.59,1590.98 Z M562.69,1586.08 L560.66,1583 L569.55,1541.21 L574.31,1541.21 L576.97,1543.45 L579,1534.21 L553.38,1534.21 L551.35,1543.45 L555.06,1541.21 L559.96,1541.21 L551.14,1582.79 L547.36,1586.08 L562.69,1586.08 Z M596.36,1586.08 L598.39,1576.63 L594.54,1579.15 L587.82,1579.15 L591.95,1559.83 L598.95,1559.83 L604.2,1552.76 L593.42,1552.76 L595.87,1541.14 L602.59,1541.14 L605.46,1543.38 L607.42,1534.21 L584.81,1534.21 L586.91,1537.36 L583.62,1552.83 L578.79,1559.97 L582.15,1559.97 L577.25,1583 L573.75,1586.08 L596.36,1586.08 Z" id="IDOPARIENTE"></path>
        </g>
    </g>
</svg>